<?xml version="1.0" encoding="UTF-8"?>
<svg id="Layer_2" data-name="Layer 2" xmlns="http://www.w3.org/2000/svg" viewBox="0 0 254.9 332.19">
  <defs>
    <style>
      .cls-1 {
        fill: #fff;
      }

      .cls-2 {
        fill: none;
        stroke: #000;
        stroke-miterlimit: 10;
        stroke-width: 6px;
      }
    </style>
  </defs>
  <g id="chees">
    <g>
      <g>
        <path d="M74.15,3h96.23c5.53,0,10,4.48,10,10v153.1h-96.73c-5.52,0-10-4.48-10-10V3.01c.17,0,.33,0,.5,0Z"/>
        <path class="cls-1" d="M73.65,3.01v153.09c0,5.52,4.48,10,10,10h61.66c0,90.07-31.86,163.09-71.16,163.09S3,256.17,3,166.1,34.59,3.62,73.65,3.01Z"/>
        <path d="M180.38,166.1h61.52c5.64,0,10.15,4.67,10,10.32-2.33,85.26-33.23,152.77-71.02,152.77h-106.73c39.3,0,71.16-73.02,71.16-163.09h35.07Z"/>
      </g>
      <g>
        <line class="cls-2" x1="74.15" y1="329.19" x2="180.88" y2="329.19"/>
        <path class="cls-2" d="M145.31,166.1c0,90.07-31.86,163.09-71.16,163.09S3,256.17,3,166.1,34.59,3.62,73.65,3.01c.17,0,.33,0,.5,0"/>
        <path class="cls-2" d="M74.15,3h96.23c5.53,0,10,4.48,10,10v153.1"/>
        <path class="cls-2" d="M73.65,3h0v153.1c0,5.52,4.48,10,10,10h158.25c5.64,0,10.15,4.67,10,10.32-2.33,85.26-33.23,152.77-71.02,152.77"/>
      </g>
    </g>
  </g>
</svg>